<svg width="73" height="72" viewBox="0 0 73 72" fill="none" xmlns="http://www.w3.org/2000/svg">
<mask id="mask0_2308_1517" style="mask-type:alpha" maskUnits="userSpaceOnUse" x="6" y="9" width="61" height="49">
<path d="M6.875 9.75H66.5V57.75H6.875V9.75Z" fill="white"/>
</mask>
<g mask="url(#mask0_2308_1517)">
<path fill-rule="evenodd" clip-rule="evenodd" d="M65.3907 39.8591L19.5654 57.6322C18.6715 57.9788 17.6667 57.5336 17.3208 56.6382L6.99216 29.8899C6.6463 28.9941 7.09053 27.9871 7.98393 27.6405L53.8092 9.86742C54.7031 9.5208 55.7079 9.966 56.0538 10.8614L66.3824 37.6101C66.7283 38.5055 66.2841 39.5125 65.3907 39.8591Z" fill="#252B31"/>
</g>
<path fill-rule="evenodd" clip-rule="evenodd" d="M19.9541 47.7689L58.4215 32.8494C59.4326 32.4573 60.5695 32.961 60.9607 33.9739L61.7333 35.9739C62.1245 36.9872 61.6223 38.1266 60.6108 38.5187L22.1433 53.4382C21.1633 53.8181 20.0736 53.3608 19.7088 52.4163L18.8401 50.1669C18.4754 49.2225 18.974 48.1489 19.9541 47.7689Z" fill="white"/>
<path fill-rule="evenodd" clip-rule="evenodd" d="M13.216 35.6022C13.9715 37.5586 16.1661 38.5305 18.1182 37.7733C20.0699 37.0166 21.0396 34.8167 20.2846 32.8608C19.5291 30.9044 17.3344 29.9325 15.3823 30.6892C13.4307 31.4464 12.4605 33.6459 13.216 35.6022Z" fill="white"/>
<path fill-rule="evenodd" clip-rule="evenodd" d="M16.7501 34.2314C17.5056 36.1878 19.7003 37.1597 21.6524 36.403C23.604 35.6458 24.5742 33.4464 23.8187 31.49C23.0632 29.5336 20.8686 28.5617 18.9169 29.3189C16.9648 30.076 15.9946 32.2755 16.7501 34.2314Z" fill="#E1001D"/>
<path fill-rule="evenodd" clip-rule="evenodd" d="M55.25 34.125C52.1434 34.125 49.625 36.6919 49.625 39.8583V42H60.875V39.8583C60.875 36.6919 58.3566 34.125 55.25 34.125Z" fill="white"/>
<path fill-rule="evenodd" clip-rule="evenodd" d="M55.2351 34.125C53.6922 34.1291 52.2928 34.7644 51.2725 35.8043C50.2568 36.8396 49.625 38.27 49.625 39.8583V42H60.875V39.8583C60.875 38.2918 60.2604 36.8789 59.2691 35.8472C58.2874 34.8254 56.9333 34.1628 55.2351 34.125ZM49.1311 33.7033C50.6915 32.1128 52.8574 31.125 55.25 31.125H55.265L55.28 31.1253C57.7929 31.1756 59.905 32.1789 61.4324 33.7687C62.9427 35.3406 63.875 37.4915 63.875 39.8583V45H46.625V39.8583C46.625 37.4584 47.5834 35.2807 49.1311 33.7033Z" fill="white"/>
<path fill-rule="evenodd" clip-rule="evenodd" d="M66.5 40.5V63.375H44.375V40.5H66.5Z" fill="white"/>
<path fill-rule="evenodd" clip-rule="evenodd" d="M42.875 39H68V64.875H42.875V39ZM45.875 42V61.875H65V42H45.875Z" fill="white"/>
<path fill-rule="evenodd" clip-rule="evenodd" d="M45.875 61.875H65V42H45.875V61.875Z" fill="white"/>
<path fill-rule="evenodd" clip-rule="evenodd" d="M45.125 41.25H65.75V62.625H45.125V41.25ZM46.625 42.75V61.125H64.25V42.75H46.625Z" fill="#0048DB"/>
<path fill-rule="evenodd" clip-rule="evenodd" d="M48.875 39.8583C48.875 36.2912 51.7158 33.375 55.25 33.375C58.7842 33.375 61.625 36.2912 61.625 39.8583V42.75H48.875V39.8583ZM55.25 34.875C52.5711 34.875 50.375 37.0926 50.375 39.8583V41.25H60.125V39.8583C60.125 37.0926 57.9289 34.875 55.25 34.875Z" fill="#0048DB"/>
<path fill-rule="evenodd" clip-rule="evenodd" d="M50.4805 52.197C50.4805 52.197 52.1746 54.8587 55.762 52.733C59.1267 50.7395 61.4766 52.8534 61.4766 52.8534" fill="white"/>
<path fill-rule="evenodd" clip-rule="evenodd" d="M59.681 52.7684C58.8542 52.5393 57.638 52.4933 56.1444 53.3782C54.1607 54.5537 52.5809 54.4561 51.4635 53.9438C50.9269 53.6978 50.531 53.3717 50.2692 53.1081C50.1376 52.9757 50.0376 52.8567 49.9681 52.7673C49.9333 52.7225 49.906 52.6849 49.886 52.6564C49.8761 52.6421 49.8679 52.6301 49.8615 52.6205L49.8533 52.6081L49.8503 52.6034L49.849 52.6014L49.8484 52.6004C49.8481 52.6 49.8478 52.5996 50.4758 52.1999L49.8478 52.5996C49.6254 52.2502 49.7284 51.7866 50.0779 51.5642C50.4256 51.3429 50.8863 51.4437 51.1099 51.789C51.1107 51.7901 51.1123 51.7925 51.1149 51.7962C51.1215 51.8056 51.1341 51.8231 51.1526 51.8469C51.1898 51.8948 51.2501 51.9672 51.3334 52.051C51.5014 52.2201 51.7532 52.4265 52.0886 52.5803C52.7151 52.8675 53.7761 53.038 55.3798 52.0877L55.3798 52.0877C57.2509 50.9791 58.892 50.9933 60.0814 51.3228C60.6658 51.4847 61.1288 51.7188 61.4485 51.9145C61.6088 52.0126 61.7347 52.102 61.8234 52.1696C61.8679 52.2034 61.9032 52.2319 61.9291 52.2534C61.942 52.2642 61.9526 52.2732 61.9608 52.2803L61.9714 52.2896L61.9753 52.293L61.9769 52.2945L61.9777 52.2951C61.978 52.2954 61.9783 52.2957 61.4838 52.8455L61.9783 52.2957C62.2863 52.5728 62.3114 53.047 62.0343 53.3549C61.7583 53.6617 61.2866 53.6878 60.9786 53.414C60.9774 53.413 60.9763 53.412 60.9752 53.4109L61.4767 52.8533C60.9752 53.4109 60.9755 53.4112 60.9758 53.4115L60.9763 53.412L60.9773 53.4129L60.9787 53.4141C60.9793 53.4146 60.9794 53.4147 60.979 53.4143C60.9789 53.4142 60.9787 53.4141 60.9786 53.414C60.9774 53.413 60.9745 53.4105 60.97 53.4067C60.9598 53.3983 60.9414 53.3833 60.915 53.3632C60.8621 53.3229 60.778 53.2628 60.6654 53.1939C60.4394 53.0555 60.1046 52.8857 59.681 52.7684Z" fill="#0048DB"/>
</svg>
