<svg xmlns="http://www.w3.org/2000/svg" xmlns:xlink="http://www.w3.org/1999/xlink" width="40" height="40" viewBox="0 0 40 40">
    <defs>
        <path id="a" d="M9 21.5a.5.5 0 0 0-.5.5v7a.5.5 0 0 0 .5.5h1a.5.5 0 0 0 .5-.5v-7a.5.5 0 0 0-.5-.5H9zm11.28-9.423v-.854a.5.5 0 0 1 1 0v.854a6.186 6.186 0 0 1 2.502.746l1.101-2.447a.5.5 0 0 0-.52-.7l-3.312.431h-.124l-3.773-.452a.5.5 0 0 0-.515.702l1.116 2.479a6.185 6.185 0 0 1 2.526-.76zm-3.367 1.325l-1.186-2.635a1.5 1.5 0 0 1 1.547-2.105l3.71.445 3.25-.424a1.5 1.5 0 0 1 1.561 2.103l-1.169 2.598c1.334 1.058 2.185 2.657 2.185 4.449 0 2.93-1.99 3.891-6.03 3.891s-6.03-.962-6.03-3.891c0-1.782.84-3.373 2.162-4.431zm3.267 5.837c-.604-.153-1.057-.65-1.057-1.258a.395.395 0 1 1 .79 0c0 .27.285.516.662.516.378 0 .662-.245.662-.516 0-.274-.177-.425-.73-.521-.863-.151-1.384-.585-1.384-1.3 0-.61.453-1.105 1.057-1.258v-.306a.395.395 0 1 1 .79 0v.306c.605.153 1.058.648 1.058 1.257a.395.395 0 1 1-.79 0c0-.27-.285-.516-.663-.516-.377 0-.661.245-.661.516 0 .26.203.43.73.522.89.155 1.384.577 1.384 1.3 0 .609-.453 1.105-1.057 1.258v.292a.395.395 0 1 1-.791 0v-.292zm-8.68 2.883a4.7 4.7 0 0 1 4.896.768l1.29 1.11h4.516a2.1 2.1 0 0 1 1.893 1.189l1.786-.795a2.67 2.67 0 0 0 1.45-1.596A1.898 1.898 0 0 1 30.931 24a6.318 6.318 0 0 1-1.562 2.506l-.69.678a13.01 13.01 0 0 1-3.305 2.362c-1.226.613-2.56.982-3.926 1.087l-1.82.14a13.473 13.473 0 0 1-4.021-.296l-1.132-.257a23.5 23.5 0 0 1-1.586-.42l-1.435-.433A1.5 1.5 0 0 1 10 30.5H9A1.5 1.5 0 0 1 7.5 29v-7A1.5 1.5 0 0 1 9 20.5h1a1.5 1.5 0 0 1 1.5 1.5v.122zm5.36 2.487l-1.116-.962a3.7 3.7 0 0 0-4.244-.412v5.1l1.68.507a22.5 22.5 0 0 0 1.518.402l1.132.257c1.22.278 2.475.37 3.723.274l1.82-.14a9.596 9.596 0 0 0 3.555-.985 12.01 12.01 0 0 0 3.051-2.18l.69-.678a5.318 5.318 0 0 0 1.315-2.11.898.898 0 1 0-1.705-.567 3.67 3.67 0 0 1-1.991 2.193l-1.988.883a2.1 2.1 0 0 1-2.098 2.009H15l.443-1h6.76a1.1 1.1 0 0 0 0-2.2H16.86v-.39zm3.92-3.885c3.557 0 5.031-.712 5.031-2.891 0-2.632-2.247-4.776-5.03-4.776-2.784 0-5.03 2.144-5.03 4.776 0 2.179 1.473 2.891 5.03 2.891z"/>
    </defs>
    <g fill="none" fill-rule="evenodd">
        <mask id="b" fill="#fff">
            <use xlink:href="#a"/>
        </mask>
        <use fill="#E6E6E6" fill-rule="nonzero" xlink:href="#a"/>
        <g fill="#415C70" mask="url(#b)">
            <path d="M0 0h40v40H0z"/>
        </g>
    </g>
</svg>
